<?xml version="1.0" standalone="no"?>
<!DOCTYPE svg PUBLIC "-//W3C//DTD SVG 20010904//EN"
 "http://www.w3.org/TR/2001/REC-SVG-20010904/DTD/svg10.dtd">
<svg version="1.0" xmlns="http://www.w3.org/2000/svg"
 width="2096.000000pt" height="2096.000000pt" viewBox="0 0 2096.000000 2096.000000"
 preserveAspectRatio="xMidYMid meet">
<metadata>
Created by potrace 1.14, written by Peter Selinger 2001-2017
</metadata>
<g transform="translate(0.000000,2096.000000) scale(0.100000,-0.100000)"
fill="#000000" stroke="none">
<path d="M177 14382 c-2 -4 -4 -658 -4 -1454 0 -1313 2 -1448 16 -1449 9 -1
20 -1 26 1 11 2 8 2 213 -2 83 -2 152 0 152 3 0 4 16 3 34 -1 19 -4 37 -6 40
-3 2 3 34 5 69 4 l65 0 1 465 c0 257 2 469 6 472 3 3 153 6 333 7 332 2 376 5
492 32 36 8 72 16 80 18 19 4 120 44 134 53 6 3 16 7 23 8 7 1 49 27 95 56 87
57 163 126 213 193 17 22 33 42 36 45 8 6 80 146 96 185 15 38 43 142 48 175
2 14 6 48 10 75 9 61 9 226 1 280 -44 286 -150 481 -346 637 -119 95 -312 172
-490 195 -68 9 -1338 14 -1343 5z m1163 -506 c216 -49 325 -147 374 -337 13
-51 15 -216 3 -267 -19 -77 -68 -169 -117 -220 -26 -28 -123 -91 -148 -98
-138 -35 -184 -39 -414 -38 -131 0 -240 2 -243 5 -4 5 -9 693 -6 915 l1 51
263 -3 c144 -1 273 -4 287 -8z"/>
<path d="M13069 14185 c-1 0 -3 -115 -4 -255 -2 -140 -3 -258 -4 -262 -1 -4
-58 -7 -128 -7 -71 1 -137 0 -148 0 -19 -1 -20 -8 -20 -226 l0 -225 25 -1 c14
0 80 -1 148 -1 82 -1 122 -4 123 -12 1 -6 2 -288 3 -626 1 -338 5 -624 9 -635
3 -11 9 -35 12 -54 6 -33 43 -131 54 -141 4 -3 12 -17 20 -32 8 -16 18 -28 23
-28 4 0 8 -6 9 -12 0 -18 94 -94 159 -130 61 -34 152 -65 220 -74 24 -3 56 -8
70 -10 35 -5 201 -5 225 0 11 2 40 7 65 10 92 12 185 41 185 56 0 8 -8 51 -17
95 -10 44 -30 136 -44 205 -28 135 -31 143 -44 135 -5 -3 -29 -8 -52 -11 -148
-16 -224 8 -264 85 l-23 42 -1 568 -1 568 198 1 c109 0 203 1 208 1 11 1 14
181 3 181 -4 0 -3 12 1 28 5 15 5 37 0 49 -4 12 -4 25 1 28 5 3 5 18 0 35 -5
17 -5 30 0 30 5 0 5 13 0 28 -4 16 -4 36 1 45 6 10 5 18 -2 23 -6 3 -101 7
-210 7 l-199 0 0 258 c0 143 -3 260 -7 260 -6 1 -587 5 -594 4z"/>
<path d="M3825 13689 c-78 -9 -92 -13 -156 -40 -86 -36 -167 -103 -225 -185
-27 -38 -74 -139 -74 -158 0 -20 -19 -31 -33 -17 -8 8 -8 11 2 11 7 0 9 5 5
11 -4 7 -7 89 -6 183 l0 171 -287 -2 c-157 -1 -289 -2 -293 -2 -4 -1 -6 -493
-5 -1093 2 -838 5 -1092 14 -1091 20 4 63 4 221 1 83 -2 152 0 152 3 0 4 16 3
34 -1 19 -4 37 -6 40 -3 5 5 104 6 126 1 13 -3 15 84 16 642 1 355 4 663 8
685 8 50 55 165 67 165 5 0 9 5 9 11 0 17 81 93 130 121 77 44 146 61 255 63
55 1 104 -1 110 -4 5 -3 16 -6 25 -6 8 -1 38 -5 65 -9 l50 -7 0 265 c0 303 10
274 -100 282 -33 2 -67 5 -75 7 -8 1 -42 -1 -75 -4z"/>
<path d="M5088 13679 c-32 -5 -83 -15 -115 -24 -32 -9 -65 -18 -73 -19 -42 -9
-218 -89 -230 -104 -3 -4 -23 -19 -45 -33 -40 -26 -153 -132 -190 -179 -57
-71 -146 -236 -161 -297 -4 -15 -10 -32 -14 -38 -7 -9 -22 -63 -25 -90 0 -5
-5 -28 -9 -50 -5 -22 -10 -49 -13 -60 -11 -57 -21 -335 -12 -335 3 0 6 -12 6
-27 0 -24 5 -66 18 -148 14 -93 111 -343 137 -353 4 -2 8 -10 8 -17 0 -12 69
-108 94 -130 6 -5 21 -23 34 -39 12 -16 22 -26 22 -24 0 3 16 -10 36 -29 50
-47 141 -107 208 -138 31 -14 57 -24 59 -23 2 2 10 -2 18 -8 8 -6 28 -15 44
-19 17 -5 35 -10 40 -11 123 -39 329 -55 490 -39 406 40 718 278 854 653 17
45 31 86 31 90 0 4 5 23 10 43 30 111 42 336 27 494 -7 64 -9 83 -21 140 -27
136 -86 276 -164 393 -147 220 -365 357 -663 417 -51 10 -336 13 -401 4z m297
-463 c31 -6 97 -39 124 -61 44 -36 101 -100 101 -112 0 -7 3 -13 8 -13 4 0 13
-12 19 -27 34 -78 47 -109 49 -120 1 -6 7 -27 13 -45 19 -57 23 -99 24 -253 2
-161 -3 -219 -29 -305 -20 -69 -56 -154 -66 -158 -4 -2 -8 -10 -8 -18 0 -37
-180 -185 -213 -176 -4 1 -17 -3 -28 -9 -21 -11 -170 -16 -186 -6 -5 4 -24 9
-41 12 -18 3 -53 17 -79 32 -129 72 -227 250 -251 458 -12 103 -5 308 12 380
35 142 78 231 148 308 29 31 59 57 66 57 6 0 12 3 12 8 0 10 55 33 115 49 45
11 154 11 210 -1z"/>
<path d="M7825 13682 c-3 -3 -13 -6 -23 -7 -79 -7 -218 -75 -295 -145 -60 -55
-141 -176 -161 -242 -3 -10 -11 -15 -18 -13 -10 4 -13 50 -13 197 l0 192 -283
-1 c-156 -1 -285 -3 -288 -5 -4 -5 -8 -573 -4 -593 1 -5 1 -14 0 -20 -2 -14
-2 -208 0 -220 1 -5 2 -14 1 -20 -3 -14 -3 -368 -1 -380 1 -5 1 -14 0 -20 -2
-14 -2 -208 0 -220 1 -5 1 -14 0 -20 -2 -14 -2 -208 0 -220 1 -5 1 -14 0 -20
-1 -5 -1 -57 0 -115 1 -119 1 -108 -1 -216 -2 -125 -9 -119 126 -119 63 0 115
4 115 8 0 5 4 6 9 2 6 -3 41 -5 78 -5 80 1 83 1 148 0 28 -1 68 -1 90 -1 l40
1 0 673 c-1 369 3 692 7 717 5 25 10 52 11 60 7 39 56 120 99 162 89 87 204
118 329 88 55 -13 117 -49 156 -91 30 -33 70 -117 78 -164 4 -22 7 -354 7
-738 0 -554 3 -699 13 -703 22 -9 215 -9 215 -1 0 5 4 6 9 2 6 -3 41 -5 78 -5
37 0 77 1 88 0 11 0 49 0 85 1 36 0 72 0 82 0 15 0 16 54 17 693 0 459 4 709
11 741 25 114 87 198 179 243 49 24 68 27 156 27 87 0 107 -3 155 -26 92 -43
163 -133 174 -222 3 -17 6 -32 7 -32 1 0 2 -318 3 -707 1 -389 4 -710 8 -713
9 -9 228 -11 228 -2 0 5 4 6 9 2 6 -3 41 -5 78 -5 80 1 83 1 148 0 28 -1 69
-1 93 -1 l42 1 0 788 c-1 834 -3 863 -49 996 -74 210 -246 359 -476 412 -37 9
-296 13 -310 5 -5 -3 -19 -7 -30 -8 -11 -2 -49 -13 -85 -25 -129 -42 -232
-114 -311 -218 -35 -46 -79 -128 -79 -148 0 -19 -29 -2 -36 21 -37 120 -130
235 -243 299 -31 18 -58 33 -61 33 -3 0 -9 3 -15 6 -12 8 -70 26 -110 35 -37
9 -272 14 -280 6z"/>
<path d="M11518 13685 c-2 -2 -21 -6 -43 -8 -59 -7 -137 -40 -235 -99 -58 -34
-160 -154 -211 -246 -12 -23 -28 -41 -33 -39 -7 2 -11 67 -11 185 0 155 -2
182 -15 183 -75 3 -572 0 -576 -4 -4 -4 -7 -2020 -4 -2858 l0 -136 300 0 c270
0 300 1 301 16 0 9 1 270 2 581 1 350 6 565 12 565 5 0 18 -18 30 -40 11 -22
22 -42 25 -45 3 -3 19 -23 35 -45 47 -63 108 -119 175 -158 34 -21 64 -37 68
-37 4 0 20 -7 35 -15 15 -8 44 -17 65 -19 20 -3 55 -9 77 -14 46 -9 182 -8
240 2 22 4 56 9 75 12 19 3 41 11 48 16 6 6 12 8 12 5 0 -6 52 15 130 51 19 9
60 34 90 56 152 111 265 272 333 476 23 69 29 92 42 160 3 14 7 36 10 50 18
92 25 345 12 475 -11 116 -34 226 -65 320 -19 57 -68 168 -85 190 -4 5 -24 35
-44 65 -20 30 -42 61 -49 67 -7 7 -14 16 -16 20 -3 8 -84 82 -127 116 -56 45
-217 121 -278 131 -15 2 -28 5 -28 6 0 9 -288 23 -297 15z m49 -494 c130 -40
257 -184 293 -332 6 -24 13 -53 16 -64 18 -66 24 -298 11 -382 -15 -98 -58
-238 -78 -253 -3 -3 -10 -15 -14 -28 -12 -39 -119 -140 -177 -167 -101 -46
-206 -51 -322 -13 -152 48 -273 226 -304 448 -8 61 -8 296 0 345 27 155 78
266 161 348 60 60 124 95 186 103 19 2 37 6 39 9 8 7 156 -3 189 -14z"/>
<path d="M62 9256 l0 -253 444 1 c437 1 444 1 445 -19 0 -11 1 -551 1 -1201
l0 -1181 32 -2 c17 -1 42 -3 56 -4 14 -2 35 1 47 5 12 4 25 3 27 -1 3 -5 25
-5 48 -1 24 5 47 6 52 3 11 -7 111 -7 123 0 4 2 17 1 28 -3 11 -4 30 -3 43 1
14 6 21 5 17 0 -3 -6 6 -6 24 -1 16 4 31 7 33 5 12 -12 58 -11 68 1 9 10 12
313 12 1204 l0 1190 32 1 c17 0 217 1 444 1 l412 1 0 253 0 253 -1194 0 -1194
0 0 -253z"/>
<path d="M2838 9502 c-1 -4 -2 -658 -3 -1453 l-1 -1446 50 -2 c28 -2 57 -3 64
-2 19 2 32 2 102 2 36 -1 73 -1 83 -1 9 0 39 0 66 -1 27 -1 53 1 57 3 5 3 18
2 29 -2 11 -4 30 -3 43 1 15 6 21 5 17 -1 -3 -5 0 -7 8 -5 7 3 31 7 53 8 28 2
38 6 36 17 -4 16 -5 138 -2 155 1 6 1 15 0 20 -6 29 -4 135 3 135 5 0 5 5 1
11 -6 10 -9 129 -4 154 1 6 1 15 0 20 -6 30 -4 265 3 265 4 0 3 8 -2 19 -6 10
-8 21 -5 23 5 6 5 41 1 136 -1 34 1 62 6 62 4 0 3 8 -2 19 -6 10 -8 20 -6 23
6 5 6 40 3 151 -2 48 -1 87 2 87 3 0 6 21 7 47 2 50 34 139 66 188 87 131 260
196 436 163 152 -28 250 -128 288 -293 4 -16 7 -339 8 -717 0 -541 3 -689 13
-693 6 -2 12 0 12 4 0 5 12 6 27 2 16 -4 46 -4 68 0 22 4 47 3 56 -2 9 -4 19
-6 22 -3 5 5 57 6 112 1 17 -1 40 1 52 5 12 4 25 3 27 -1 3 -5 25 -5 48 -1 25
5 50 4 61 -1 9 -6 22 -7 28 -3 6 3 27 6 47 6 l37 -1 -1 742 c-1 408 -4 762 -8
787 -13 100 -52 246 -68 256 -4 3 -8 12 -8 20 0 8 -5 20 -10 27 -6 7 -25 35
-43 63 -98 157 -251 257 -457 301 -42 9 -294 8 -330 -1 -14 -3 -34 -8 -45 -10
-132 -27 -289 -135 -363 -249 -15 -23 -29 -44 -33 -47 -3 -3 -12 -23 -21 -45
-9 -22 -22 -40 -29 -40 -12 0 -14 89 -16 520 -1 286 -2 534 -2 552 l-1 32
-290 0 c-159 0 -291 -3 -292 -7z"/>
<path d="M8658 9497 c-7 -22 -2 -2887 5 -2894 10 -9 57 -10 63 -1 3 4 11 5 19
2 23 -9 79 -10 102 -2 12 4 25 3 27 -1 3 -5 23 -5 44 -1 21 4 50 5 63 3 48 -8
84 -9 106 -1 12 4 25 3 27 -1 3 -5 25 -5 48 -1 24 5 49 5 56 1 8 -4 24 -6 35
-4 l22 4 -2 600 c-1 659 -7 603 57 600 14 -1 39 -1 55 0 27 0 446 -1 470 -1 6
-1 71 0 146 1 74 1 141 -1 147 -5 7 -4 12 -4 12 1 0 4 66 8 147 8 l148 0 1
240 c0 132 -2 246 -4 252 -3 10 -124 13 -535 12 -293 0 -557 1 -588 1 l-56 0
0 345 c0 310 2 345 16 346 9 0 303 1 653 1 458 1 638 4 640 12 2 6 3 119 3
251 l0 240 -962 2 c-748 2 -962 0 -965 -10z"/>
<path d="M13482 9075 c-1 -126 -1 -244 -1 -261 l-1 -32 -132 0 c-73 0 -140 -1
-148 -1 -13 -1 -16 -32 -16 -223 0 -123 3 -225 7 -228 4 -3 69 -4 143 -3 84 1
138 -2 142 -9 3 -5 6 -290 6 -631 1 -443 4 -626 12 -636 6 -8 10 -17 8 -20 -6
-12 9 -71 32 -123 38 -86 149 -217 184 -218 6 0 12 -4 12 -8 0 -19 157 -79
265 -101 91 -18 352 -8 430 17 11 4 21 6 69 16 l38 7 -5 49 c-3 27 -8 53 -10
57 -4 7 -8 23 -22 108 -3 18 -11 48 -19 80 -1 6 -8 43 -16 83 -12 67 -19 78
-45 72 -69 -13 -172 -14 -206 -1 -13 5 -28 9 -34 10 -21 4 -55 46 -71 88 -15
39 -17 103 -16 591 0 301 1 552 1 557 1 7 69 11 199 12 108 1 200 2 203 2 3 1
6 102 6 226 l1 225 -27 1 c-14 0 -106 1 -203 1 -159 0 -178 1 -179 16 0 9 -1
126 -1 260 -1 169 -4 242 -12 243 -6 1 -142 2 -303 3 l-291 1 0 -230z"/>
<path d="M18498 8815 c-2 -1 -25 -5 -53 -8 -77 -9 -93 -14 -171 -51 -119 -56
-218 -169 -264 -298 -17 -50 -39 -75 -41 -46 0 7 0 87 -1 178 0 91 -2 172 -4
180 -3 13 -41 15 -276 13 -150 -1 -281 -2 -291 -2 -16 -1 -17 -56 -17 -1045 0
-575 0 -1049 -1 -1053 -1 -4 -1 -24 0 -44 1 -33 4 -37 31 -41 17 -3 33 -1 36
3 2 5 11 6 19 3 22 -9 78 -10 100 -3 11 3 29 3 40 -1 11 -4 30 -4 43 1 14 6
22 5 22 -2 0 -8 4 -8 13 0 8 6 16 8 19 6 9 -9 82 -11 105 -3 13 4 25 3 28 -3
4 -5 11 -7 16 -3 5 3 37 6 72 6 l62 1 0 651 c1 698 1 696 53 800 33 68 115
145 193 184 76 38 112 45 229 45 80 0 108 -2 205 -18 l40 -7 0 261 c0 166 -4
264 -11 271 -6 6 -39 13 -75 16 -35 3 -76 7 -91 9 -15 2 -28 2 -30 0z"/>
<path d="M6137 8803 c-3 -2 -20 -6 -38 -9 -41 -5 -56 -8 -134 -29 -63 -16
-248 -103 -283 -133 -12 -9 -36 -28 -53 -42 -107 -82 -223 -237 -286 -381 -19
-44 -36 -88 -38 -97 -3 -9 -9 -35 -15 -57 -13 -45 -25 -100 -35 -160 -13 -72
-12 -347 2 -435 12 -81 29 -158 40 -190 4 -8 7 -22 9 -30 2 -9 11 -34 20 -55
10 -22 18 -42 19 -45 5 -22 71 -136 107 -185 218 -295 559 -426 1013 -391 296
23 559 154 704 351 28 39 56 75 61 82 6 7 10 19 10 28 0 8 4 15 8 15 5 0 9 6
10 13 0 6 12 43 26 80 14 37 26 74 26 81 0 9 -18 14 -57 15 -32 1 -74 4 -93 6
-46 5 -179 14 -306 20 l-100 6 -23 -45 c-22 -43 -96 -126 -112 -126 -4 0 -14
-6 -21 -14 -8 -7 -48 -25 -89 -39 -63 -21 -90 -24 -179 -22 -99 2 -145 7 -180
22 -8 3 -17 7 -20 7 -3 1 -30 15 -60 32 -137 78 -220 227 -224 399 l-1 60 740
0 740 1 -1 144 c-2 217 -14 307 -61 455 -113 360 -386 596 -764 661 -42 7
-356 13 -362 7z m298 -458 c80 -20 184 -93 243 -169 38 -49 71 -152 76 -236
l1 -25 -458 -3 -459 -2 7 46 c15 111 86 238 170 302 55 42 135 81 183 88 20 3
38 7 40 9 6 6 167 -3 197 -10z"/>
<path d="M19738 8805 c-1 -2 -23 -6 -48 -10 -327 -47 -601 -250 -749 -556 -31
-66 -74 -200 -86 -269 -3 -19 -8 -42 -10 -50 -19 -68 -20 -318 -1 -475 4 -38
44 -204 55 -230 26 -60 93 -200 99 -205 4 -3 20 -25 36 -50 65 -101 231 -239
361 -299 232 -108 534 -132 850 -67 32 7 133 40 150 49 11 6 22 12 25 12 15 4
67 31 83 43 9 9 17 12 17 8 0 -4 6 -1 14 6 8 7 31 24 52 38 58 40 157 140 196
200 35 54 61 100 63 110 1 3 9 22 18 43 14 33 32 105 29 116 -2 7 -20 9 -145
16 -62 4 -128 8 -147 10 -19 2 -87 6 -150 10 l-115 6 -13 -35 c-7 -20 -18 -36
-23 -36 -5 0 -9 -6 -9 -13 0 -17 -68 -80 -112 -105 -30 -17 -87 -39 -128 -50
-35 -9 -208 -10 -247 -2 -177 40 -299 150 -348 314 -26 84 -37 193 -21 199 6
2 337 3 736 2 399 0 730 0 735 2 6 2 9 36 8 81 -3 129 -12 296 -17 322 -3 14
-7 36 -10 50 -61 332 -242 583 -516 714 -38 18 -79 37 -92 41 -13 4 -27 9 -33
11 -14 5 -122 31 -165 40 -36 7 -335 15 -342 9z m284 -461 c7 -5 22 -10 32
-11 47 -8 147 -79 200 -144 26 -31 78 -148 71 -159 -3 -5 -1 -11 3 -14 5 -3
10 -28 11 -56 l1 -50 -456 0 -456 0 5 48 c5 59 31 133 64 185 33 53 118 137
138 137 8 0 15 4 15 9 0 10 95 52 127 56 13 1 26 5 29 7 8 8 202 0 216 -8z"/>
<path d="M10853 8774 c-7 -18 3 -1547 10 -1579 30 -129 80 -255 131 -330 41
-60 147 -155 222 -199 110 -64 210 -89 367 -91 70 -1 130 2 133 7 3 5 9 6 14
3 4 -2 28 2 54 9 25 8 46 12 46 10 0 -10 142 63 195 100 61 44 144 132 157
167 4 11 12 19 18 19 5 0 9 3 9 8 -3 14 36 92 49 96 14 6 14 17 14 -206 0
-116 3 -180 10 -184 16 -10 59 -11 85 -2 12 4 25 3 28 -3 4 -5 11 -7 16 -3 5
3 34 5 64 4 30 0 62 -1 70 0 8 0 21 0 28 0 6 1 44 1 82 1 39 0 77 0 85 0 8 0
20 0 25 -1 6 -1 28 -2 50 -1 l40 1 0 1090 c0 720 -3 1090 -10 1091 -53 3 -587
0 -591 -4 -3 -3 -6 -302 -6 -665 0 -713 -1 -722 -55 -821 -32 -58 -47 -75
-105 -122 -114 -90 -306 -111 -430 -48 -72 37 -164 139 -172 191 -1 7 -4 18
-8 23 -18 30 -22 162 -23 774 l0 674 -299 1 c-207 1 -300 -2 -303 -10z"/>
<path d="M14913 8782 l-22 -3 3 -767 c2 -422 6 -778 9 -792 3 -14 7 -36 10
-50 20 -103 62 -207 120 -293 37 -56 152 -177 168 -177 4 0 14 -6 21 -12 32
-31 159 -83 253 -104 56 -12 340 -7 340 6 0 1 11 3 24 6 51 9 159 59 216 99
97 69 171 157 220 262 38 80 41 65 40 -167 0 -198 2 -208 50 -190 11 4 29 4
40 0 11 -4 30 -4 43 1 14 6 22 5 22 -2 0 -8 4 -8 13 0 8 6 16 8 19 6 9 -9 81
-12 103 -4 11 3 29 3 40 -1 11 -4 30 -4 43 1 15 6 22 5 22 -3 0 -9 3 -9 11 -1
6 6 22 8 38 4 14 -3 40 -5 56 -4 17 2 42 3 56 4 l25 0 0 1084 c-1 596 -4 1086
-8 1090 -4 4 -138 8 -297 9 -234 1 -292 -2 -296 -12 -3 -8 -5 -309 -5 -670 0
-533 -3 -666 -14 -707 -20 -69 -39 -115 -48 -115 -4 0 -8 -6 -8 -13 0 -15 -87
-107 -101 -107 -5 0 -9 -5 -9 -12 0 -6 -3 -8 -7 -5 -3 4 -13 1 -22 -7 -32 -28
-141 -53 -220 -50 -195 7 -330 131 -357 329 -4 28 -7 346 -7 708 0 361 -3 657
-6 658 -25 2 -561 3 -578 1z"/>
</g>
</svg>
