<svg width="83" height="80" viewBox="0 0 83 80" fill="none" xmlns="http://www.w3.org/2000/svg">
<path d="M42 51C48.0751 51 53 46.299 53 40.5C53 34.701 48.0751 30 42 30C35.9249 30 31 34.701 31 40.5C31 46.299 35.9249 51 42 51Z" stroke="white" stroke-width="2" stroke-miterlimit="10"/>
<path d="M52.4275 26.3578V48.3309C52.4275 49.9529 53.0982 51.5085 54.292 52.6555C55.4858 53.8024 57.1049 54.4468 58.7932 54.4468C59.96 54.458 61.1068 54.1552 62.1038 53.5727C63.1008 52.9902 63.9082 52.1513 64.4347 51.1508C66.551 46.9818 67.3842 42.319 66.8361 37.7106C66.2303 32.6313 63.9857 27.8614 60.417 24.0691C56.8482 20.2768 52.134 17.6521 46.9349 16.5627C41.7357 15.4733 36.3121 15.9738 31.4238 17.9941C26.5356 20.0144 22.4276 23.4532 19.6755 27.8288C16.9233 32.2045 15.6648 37.2976 16.0764 42.3948C16.488 47.492 18.5489 52.3378 21.9705 56.2533C25.3921 60.1688 30.0029 62.9579 35.157 64.2297C40.311 65.5016 45.7501 65.1925 50.7122 63.3459" stroke="white" stroke-width="2" stroke-miterlimit="10"/>
<path d="M67.2657 1H15.7343C7.59676 1 1 7.35244 1 15.1886V64.8114C1 72.6476 7.59676 79 15.7343 79H67.2657C75.4032 79 82 72.6476 82 64.8114V15.1886C82 7.35244 75.4032 1 67.2657 1Z" stroke="white" stroke-width="2" stroke-miterlimit="10"/>
</svg>
