<svg width="58" height="57" viewBox="0 0 58 57" fill="none" xmlns="http://www.w3.org/2000/svg">
<path d="M37 27H21V55H37V27Z" stroke="#FFB800" stroke-width="4" stroke-miterlimit="10"/>
<path d="M56 29H37V45H56V29Z" stroke="#FFB800" stroke-width="4" stroke-miterlimit="10"/>
<path d="M21 27H2V38H21V27Z" stroke="#FFB800" stroke-width="4" stroke-miterlimit="10"/>
<path d="M29 11C31.7614 11 34 8.98528 34 6.5C34 4.01472 31.7614 2 29 2C26.2386 2 24 4.01472 24 6.5C24 8.98528 26.2386 11 29 11Z" stroke="#FFB800" stroke-width="4" stroke-miterlimit="10"/>
<path d="M21 24C21 21.6131 21.8429 19.3239 23.3431 17.636C24.8434 15.9482 26.8783 15 29 15C31.1217 15 33.1566 15.9482 34.6569 17.636C36.1571 19.3239 37 21.6131 37 24" stroke="#FFB800" stroke-width="4" stroke-miterlimit="10"/>
<path d="M46.5 12C48.9853 12 51 9.76142 51 7C51 4.23858 48.9853 2 46.5 2C44.0147 2 42 4.23858 42 7C42 9.76142 44.0147 12 46.5 12Z" stroke="#FFB800" stroke-width="4" stroke-miterlimit="10"/>
<path d="M39 24C39 22.9471 39.1945 21.9045 39.5724 20.9321C39.9503 19.9596 40.5041 19.0765 41.2021 18.3333C41.9001 17.59 42.7286 17.0013 43.6399 16.601C44.5513 16.2006 45.5277 15.9964 46.5131 16C48.4987 16 50.4031 16.8429 51.8071 18.3432C53.2112 19.8435 54 21.8783 54 24" stroke="#FFB800" stroke-width="4" stroke-miterlimit="10"/>
<path d="M12 11C14.2091 11 16 8.98528 16 6.5C16 4.01472 14.2091 2 12 2C9.79086 2 8 4.01472 8 6.5C8 8.98528 9.79086 11 12 11Z" stroke="#FFB800" stroke-width="4" stroke-miterlimit="10"/>
<path d="M5 24C5 21.6131 5.73621 19.3239 7.04667 17.6361C8.35714 15.9483 10.1345 15.0001 11.9878 15.0001C12.9075 14.9959 13.8188 15.2256 14.6694 15.6761C15.52 16.1265 16.2932 16.7888 16.9447 17.6249C17.5962 18.4611 18.1131 19.4546 18.4658 20.5486C18.8185 21.6426 19 22.8155 19 24" stroke="#FFB800" stroke-width="4" stroke-miterlimit="10"/>
</svg>
