<svg width="85" height="79" viewBox="0 0 85 79" fill="none" xmlns="http://www.w3.org/2000/svg">
<path d="M68.9019 1H16.0981C7.75965 1 1 7.271 1 15.0067V63.9933C1 71.729 7.75965 78 16.0981 78H68.9019C77.2404 78 84 71.729 84 63.9933V15.0067C84 7.271 77.2404 1 68.9019 1Z" stroke="white" stroke-width="2" stroke-miterlimit="10"/>
<path d="M42.5 57C52.7173 57 61 49.165 61 39.5C61 29.835 52.7173 22 42.5 22C32.2827 22 24 29.835 24 39.5C24 49.165 32.2827 57 42.5 57Z" stroke="white" stroke-width="2" stroke-miterlimit="10"/>
<path d="M70.5 17C73.5376 17 76 14.5376 76 11.5C76 8.46244 73.5376 6 70.5 6C67.4624 6 65 8.46244 65 11.5C65 14.5376 67.4624 17 70.5 17Z" fill="white"/>
</svg>
