<svg width="81" height="74" viewBox="0 0 81 74" fill="none" xmlns="http://www.w3.org/2000/svg">
<path d="M80 1H1V73H80V1Z" stroke="white" stroke-width="2" stroke-miterlimit="10"/>
<path d="M35.0001 60V38.5517C34.9953 37.0364 35.3018 35.535 35.9018 34.1337C36.5019 32.7324 37.3837 31.4586 38.4968 30.3855C39.6099 29.3124 40.9324 28.4609 42.3885 27.88C43.8445 27.299 45.4056 27 46.9821 27C50.1694 27 53.2262 28.2171 55.48 30.3834C57.7338 32.5498 59 35.488 59 38.5517V60" stroke="white" stroke-width="2" stroke-miterlimit="10"/>
<path d="M22 24V60" stroke="white" stroke-width="2" stroke-miterlimit="10"/>
<path d="M25.5 15C27.433 15 29 13.6569 29 12C29 10.3431 27.433 9 25.5 9C23.567 9 22 10.3431 22 12C22 13.6569 23.567 15 25.5 15Z" fill="white"/>
<path d="M35 24V40" stroke="white" stroke-width="2" stroke-miterlimit="10"/>
</svg>
