<?xml version="1.0" standalone="no"?>
<!DOCTYPE svg PUBLIC "-//W3C//DTD SVG 20010904//EN"
 "http://www.w3.org/TR/2001/REC-SVG-20010904/DTD/svg10.dtd">
<svg version="1.0" xmlns="http://www.w3.org/2000/svg"
 width="2560.000000pt" height="694.000000pt" viewBox="0 0 2560.000000 694.000000"
 preserveAspectRatio="xMidYMid meet">

<g transform="translate(0.000000,694.000000) scale(0.100000,-0.100000)"
fill="#000000" stroke="none">
<path d="M2870 6924 c-612 -83 -1131 -480 -1375 -1049 -23 -55 -45 -110 -49
-122 -5 -16 -20 -26 -49 -33 -677 -166 -1169 -678 -1319 -1370 -19 -91 -22
-135 -23 -330 0 -197 3 -239 23 -339 58 -288 199 -583 375 -788 l44 -52 -22
-78 c-35 -121 -56 -255 -62 -403 -16 -373 87 -723 308 -1056 99 -148 302 -352
452 -453 379 -255 828 -356 1267 -285 l89 14 78 -79 c237 -237 587 -417 923
-475 52 -10 163 -20 245 -23 574 -21 1119 238 1462 697 102 135 204 324 247
457 16 49 20 53 59 63 118 29 254 78 354 125 726 344 1125 1148 962 1939 -54
262 -171 509 -346 734 l-65 83 26 102 c75 296 75 605 0 887 -132 492 -473 908
-928 1129 -324 158 -704 214 -1045 155 l-85 -15 -75 74 c-148 144 -277 237
-450 323 -314 156 -673 215 -1021 168z m474 -460 c182 -35 372 -115 519 -220
43 -31 77 -57 75 -59 -2 -1 -325 -188 -718 -415 -393 -227 -729 -426 -747
-443 -73 -69 -67 10 -73 -1103 l-5 -1000 -290 167 -290 167 -3 869 c-3 966 -2
975 63 1169 63 190 154 340 295 488 304 317 746 460 1174 380z m1732 -558
c556 -139 942 -588 994 -1156 10 -107 1 -302 -14 -317 -3 -3 -74 34 -158 82
-84 49 -220 128 -303 175 -82 48 -325 188 -540 312 -214 124 -409 235 -432
247 -53 26 -149 29 -196 5 -37 -19 -1651 -950 -1684 -972 l-23 -14 0 345 0
345 673 388 c369 213 703 405 740 426 123 71 268 123 422 152 126 24 390 15
521 -18z m-3726 -1504 c0 -918 -1 -900 63 -965 18 -17 411 -250 872 -516 462
-266 845 -489 852 -495 9 -8 -60 -52 -270 -173 -155 -89 -289 -165 -298 -168
-11 -4 -104 44 -265 138 -137 79 -458 264 -714 412 -256 147 -499 291 -540
319 -41 28 -116 92 -166 143 -393 393 -492 990 -248 1486 132 269 340 475 608
603 50 24 94 44 99 44 4 0 7 -373 7 -828z m3770 39 c393 -227 744 -434 780
-459 90 -63 246 -222 308 -314 144 -213 218 -437 229 -688 22 -506 -253 -977
-703 -1207 -55 -28 -109 -54 -121 -57 l-23 -7 -2 853 -3 853 -22 42 c-13 23
-37 53 -55 66 -18 14 -161 99 -318 190 -471 272 -1044 603 -1222 706 -93 53
-167 99 -165 104 4 14 572 337 587 334 8 -2 337 -190 730 -416z m-1092 -424
l192 -111 0 -436 0 -435 -374 -216 -375 -216 -223 129 c-123 71 -292 168 -375
216 l-153 87 0 435 0 435 376 216 376 217 181 -105 c100 -58 269 -155 375
-216z m847 -490 l250 -145 0 -913 0 -914 -23 -90 c-108 -432 -399 -766 -804
-926 -295 -116 -669 -110 -966 17 -133 57 -325 176 -319 198 2 4 219 133 482
285 264 152 561 323 660 380 289 167 314 183 340 221 14 20 30 52 35 71 6 21
10 409 10 1022 l0 988 43 -25 c23 -13 155 -89 292 -169z m-662 -1548 c-12 -12
-1411 -818 -1476 -851 -89 -44 -250 -95 -366 -114 -81 -13 -138 -15 -255 -11
-209 8 -350 44 -536 137 -130 66 -229 137 -336 244 -187 188 -314 432 -359
693 -22 128 -19 433 5 433 5 0 334 -188 731 -417 l723 -418 66 -3 c59 -4 74 0
126 26 32 17 424 242 869 499 l810 468 3 -339 c1 -187 -1 -343 -5 -347z"/>
<path d="M9515 5520 c-1033 -117 -1675 -1070 -1520 -2256 31 -235 105 -471
216 -683 201 -388 536 -678 938 -811 194 -65 355 -90 566 -90 592 1 1093 269
1413 757 381 581 428 1475 113 2129 -249 517 -682 846 -1236 940 -110 18 -382
26 -490 14z m446 -608 c232 -62 442 -210 576 -408 89 -131 172 -334 207 -504
54 -267 47 -614 -19 -870 -115 -452 -410 -761 -803 -842 -81 -17 -122 -19
-247 -15 -270 9 -463 88 -646 264 -271 261 -402 645 -386 1133 6 194 22 303
68 460 124 426 424 723 806 795 110 21 342 14 444 -13z"/>
<path d="M21995 5453 c-43 -110 -1399 -3693 -1403 -3706 -4 -16 16 -17 322
-17 l325 0 14 28 c8 15 81 208 163 429 l149 403 806 0 807 0 15 -38 c8 -20 79
-208 157 -417 79 -209 148 -386 153 -392 7 -10 87 -13 339 -13 310 0 330 1
326 18 -3 9 -312 827 -688 1817 -375 990 -691 1824 -702 1853 l-19 52 -379 0
c-351 0 -378 -1 -385 -17z m668 -1498 c157 -412 288 -758 292 -767 7 -17 -25
-18 -579 -18 -322 0 -586 3 -586 8 -1 21 576 1549 581 1539 4 -7 135 -349 292
-762z"/>
<path d="M24580 3590 l0 -1870 333 2 332 3 3 1868 2 1867 -335 0 -335 0 0
-1870z"/>
<path d="M13160 4510 c-215 -30 -424 -133 -568 -280 l-52 -53 0 147 0 146
-310 0 -310 0 0 -1835 0 -1835 310 0 310 0 0 610 0 610 37 -40 c56 -62 185
-156 277 -200 46 -22 128 -53 182 -67 91 -24 115 -27 289 -27 210 0 284 12
440 74 519 206 825 829 755 1531 -64 634 -412 1083 -930 1200 -99 23 -332 33
-430 19z m224 -560 c116 -29 190 -73 281 -165 133 -133 205 -309 227 -557 21
-228 -13 -456 -91 -623 -118 -250 -318 -377 -596 -377 -126 -1 -214 20 -318
74 -119 62 -202 149 -267 280 -76 154 -93 247 -93 513 0 121 5 238 12 275 57
308 228 513 485 580 99 26 258 26 360 0z"/>
<path d="M16015 4509 c-427 -58 -763 -298 -957 -683 -247 -490 -213 -1158 81
-1596 178 -264 436 -439 766 -518 99 -24 129 -26 310 -27 159 0 217 4 285 19
386 85 681 308 847 642 25 52 45 95 42 97 -7 6 -494 189 -515 194 -17 4 -24
-4 -43 -53 -12 -31 -42 -85 -66 -120 -77 -107 -165 -170 -310 -220 -73 -25
-93 -28 -225 -28 -125 -1 -155 2 -220 22 -154 48 -278 141 -369 277 -72 108
-115 230 -145 412 l-5 33 957 2 957 3 -1 195 c-3 309 -52 533 -165 749 -66
127 -129 210 -237 312 -144 137 -319 226 -527 271 -106 22 -355 32 -460 17z
m359 -539 c104 -26 169 -63 241 -135 93 -92 141 -200 159 -352 l7 -53 -630 0
-630 0 16 53 c74 249 244 427 469 487 97 26 266 26 368 0z"/>
<path d="M19106 4510 c-215 -34 -380 -116 -533 -263 l-73 -70 0 146 0 147
-310 0 -310 0 0 -1370 0 -1370 310 0 310 0 0 835 c0 928 0 924 65 1060 129
268 469 389 732 260 113 -56 182 -148 225 -302 22 -77 22 -87 26 -965 l3 -888
310 0 310 0 -4 1008 c-3 1004 -3 1007 -25 1091 -53 201 -120 321 -246 446 -78
79 -105 98 -196 143 -58 28 -143 61 -190 72 -98 24 -312 34 -404 20z"/>
</g>
</svg>
