<svg width="60" height="62" viewBox="0 0 60 62" fill="none" xmlns="http://www.w3.org/2000/svg">
<path d="M41 11C39.7241 12.5769 38.1772 13.835 36.4564 14.6954C34.7356 15.5559 32.8779 16 31 16C29.1221 16 27.2644 15.5559 25.5436 14.6954C23.8228 13.835 22.2759 12.5769 21 11" stroke="#FFB800" stroke-width="5" stroke-miterlimit="10"/>
<path d="M22.4059 48.9999H38.5943C39.3053 49.0035 40.0099 48.8736 40.6674 48.6179C41.3249 48.3621 41.9223 47.9856 42.425 47.51C42.9277 47.0344 43.3258 46.4692 43.5961 45.8471C43.8664 45.225 44.0037 44.5584 43.9999 43.8859V25.1432C43.9917 17.5244 40.7968 10.2183 35.1133 4.82072C33.8912 3.65968 32.232 3.00486 30.5001 3.00001C28.7722 2.99775 27.1137 3.64272 25.887 4.79395C20.2034 10.1915 17.0086 17.4976 17.0003 25.1164V43.8591C16.9928 44.5339 17.1273 45.2034 17.3959 45.8286C17.6645 46.4538 18.062 47.0221 18.5651 47.5006C19.0681 47.979 19.6668 48.358 20.3262 48.6154C20.9856 48.8728 21.6926 49.0035 22.4059 48.9999Z" stroke="#FFB800" stroke-width="5" stroke-miterlimit="10"/>
<path d="M38 49H23L25.4913 59H35.5087L38 49Z" stroke="#FFB800" stroke-width="5" stroke-miterlimit="10"/>
<path d="M17 24L3 38.9934V44H17V24Z" stroke="#FFB800" stroke-width="5" stroke-miterlimit="10"/>
<path d="M44 24L57 38.9934V44H44V24Z" stroke="#FFB800" stroke-width="5" stroke-miterlimit="10"/>
<path d="M30 37C26.6863 37 24 34.3137 24 31C24 27.6863 26.6863 25 30 25C33.3137 25 36 27.6863 36 31C36 34.3137 33.3137 37 30 37Z" stroke="#FFB800" stroke-width="5" stroke-miterlimit="10"/>
</svg>
