<svg width="58" height="56" viewBox="0 0 58 56" fill="none" xmlns="http://www.w3.org/2000/svg">
<path d="M38.0616 36.7492C49.0733 26.1172 53.943 13.5812 48.9384 8.74918C43.9338 3.91718 30.9501 8.61898 19.9384 19.2509C8.92673 29.8829 4.05701 42.4189 9.06158 47.2509C14.0662 52.0829 27.0499 47.3811 38.0616 36.7492Z" stroke="#FFB800" stroke-width="5" stroke-miterlimit="10"/>
<path d="M48.9384 47.2508C53.943 42.4188 49.0733 29.8828 38.0616 19.2508C27.0499 8.61887 14.0662 3.91706 9.06158 8.74906C4.05701 13.5811 8.92673 26.1171 19.9384 36.7491C30.9501 47.381 43.9338 52.0828 48.9384 47.2508Z" stroke="#FFB800" stroke-width="5" stroke-miterlimit="10"/>
<path d="M28.5 30C29.8807 30 31 29.1046 31 28C31 26.8954 29.8807 26 28.5 26C27.1193 26 26 26.8954 26 28C26 29.1046 27.1193 30 28.5 30Z" stroke="#FFB800" stroke-width="5" stroke-miterlimit="10"/>
</svg>
