<svg width="262" height="99" viewBox="0 0 262 99" fill="none" xmlns="http://www.w3.org/2000/svg">
<path d="M2.16051 37V0.636363H16.5071C19.2652 0.636363 21.6148 1.16311 23.5561 2.21662C25.4974 3.25829 26.977 4.70833 27.995 6.56676C29.0249 8.41335 29.5398 10.544 29.5398 12.9588C29.5398 15.3736 29.0189 17.5043 27.9773 19.3509C26.9356 21.1974 25.4264 22.6357 23.4496 23.6655C21.4846 24.6953 19.1054 25.2102 16.3118 25.2102H7.16761V19.049H15.0689C16.5485 19.049 17.7678 18.7945 18.7266 18.2855C19.6972 17.7647 20.4193 17.0485 20.8928 16.1371C21.3781 15.2138 21.6207 14.1544 21.6207 12.9588C21.6207 11.7514 21.3781 10.6979 20.8928 9.79829C20.4193 8.88684 19.6972 8.18253 18.7266 7.68537C17.7559 7.17637 16.5249 6.92188 15.0334 6.92188H9.84872V37H2.16051ZM34.3915 37V9.72727H41.7246V14.4858H42.0087C42.5059 12.7931 43.3404 11.5147 44.5123 10.6506C45.6841 9.77462 47.0336 9.33665 48.5605 9.33665C48.9393 9.33665 49.3477 9.36032 49.7857 9.40767C50.2237 9.45502 50.6084 9.52012 50.9398 9.60298V16.3146C50.5847 16.2081 50.0935 16.1134 49.4661 16.0305C48.8387 15.9477 48.2646 15.9062 47.7438 15.9062C46.6311 15.9062 45.6368 16.1489 44.7608 16.6342C43.8967 17.1077 43.2102 17.7706 42.7012 18.6229C42.204 19.4751 41.9554 20.4576 41.9554 21.5703V37H34.3915ZM65.9034 37.5327C63.1454 37.5327 60.7602 36.9467 58.7479 35.7749C56.7474 34.5911 55.2027 32.9458 54.1136 30.8388C53.0246 28.7199 52.4801 26.2637 52.4801 23.4702C52.4801 20.6529 53.0246 18.1908 54.1136 16.0838C55.2027 13.965 56.7474 12.3196 58.7479 11.1477C60.7602 9.96401 63.1454 9.37216 65.9034 9.37216C68.6615 9.37216 71.0407 9.96401 73.0412 11.1477C75.0535 12.3196 76.6042 13.965 77.6932 16.0838C78.7822 18.1908 79.3267 20.6529 79.3267 23.4702C79.3267 26.2637 78.7822 28.7199 77.6932 30.8388C76.6042 32.9458 75.0535 34.5911 73.0412 35.7749C71.0407 36.9467 68.6615 37.5327 65.9034 37.5327ZM65.9389 31.6733C67.1937 31.6733 68.2412 31.3182 69.0817 30.608C69.9221 29.8859 70.5554 28.9034 70.9815 27.6605C71.4195 26.4176 71.6385 25.0031 71.6385 23.4169C71.6385 21.8307 71.4195 20.4162 70.9815 19.1733C70.5554 17.9304 69.9221 16.9479 69.0817 16.2259C68.2412 15.5038 67.1937 15.1428 65.9389 15.1428C64.6723 15.1428 63.607 15.5038 62.7429 16.2259C61.8906 16.9479 61.2455 17.9304 60.8075 19.1733C60.3814 20.4162 60.1683 21.8307 60.1683 23.4169C60.1683 25.0031 60.3814 26.4176 60.8075 27.6605C61.2455 28.9034 61.8906 29.8859 62.7429 30.608C63.607 31.3182 64.6723 31.6733 65.9389 31.6733ZM84.245 37V9.72727H91.4538V14.5391H91.7734C92.3416 12.9411 93.2886 11.6804 94.6143 10.7571C95.9401 9.83381 97.5263 9.37216 99.3729 9.37216C101.243 9.37216 102.835 9.83973 104.149 10.7749C105.463 11.6982 106.339 12.9529 106.777 14.5391H107.061C107.617 12.9766 108.624 11.7277 110.08 10.7926C111.547 9.84564 113.281 9.37216 115.282 9.37216C117.827 9.37216 119.893 10.183 121.479 11.8047C123.077 13.4145 123.876 15.6991 123.876 18.6584V37H116.33V20.1499C116.33 18.6347 115.927 17.4983 115.122 16.7408C114.317 15.9832 113.311 15.6044 112.104 15.6044C110.731 15.6044 109.659 16.0424 108.89 16.9183C108.121 17.7824 107.736 18.9247 107.736 20.3452V37H100.403V19.9901C100.403 18.6525 100.018 17.5871 99.2486 16.794C98.491 16.0009 97.4908 15.6044 96.2479 15.6044C95.4074 15.6044 94.6499 15.8175 93.9751 16.2436C93.3123 16.6579 92.7855 17.2438 92.3949 18.0014C92.0043 18.7472 91.8089 19.6231 91.8089 20.6293V37H84.245ZM129.85 47.2273V9.72727H137.308V14.3082H137.645C137.977 13.5743 138.456 12.8286 139.083 12.071C139.723 11.3016 140.551 10.6624 141.569 10.1534C142.599 9.63258 143.877 9.37216 145.404 9.37216C147.393 9.37216 149.228 9.89299 150.909 10.9347C152.59 11.9645 153.933 13.5211 154.939 15.6044C155.945 17.6759 156.449 20.2741 156.449 23.3991C156.449 26.4413 155.957 29.0099 154.975 31.1051C154.004 33.1884 152.678 34.7687 150.998 35.8459C149.328 36.9112 147.458 37.4439 145.387 37.4439C143.919 37.4439 142.67 37.2012 141.64 36.7159C140.622 36.2306 139.788 35.621 139.137 34.8871C138.486 34.1413 137.989 33.3897 137.645 32.6321H137.414V47.2273H129.85ZM137.255 23.3636C137.255 24.9853 137.48 26.3999 137.929 27.6072C138.379 28.8146 139.03 29.7557 139.882 30.4304C140.735 31.0933 141.77 31.4247 142.99 31.4247C144.221 31.4247 145.262 31.0874 146.115 30.4126C146.967 29.7261 147.612 28.7791 148.05 27.5717C148.5 26.3525 148.725 24.9498 148.725 23.3636C148.725 21.7893 148.506 20.4044 148.068 19.2088C147.63 18.0133 146.985 17.0781 146.132 16.4034C145.28 15.7287 144.233 15.3913 142.99 15.3913C141.759 15.3913 140.717 15.7169 139.865 16.3679C139.024 17.0189 138.379 17.9422 137.929 19.1378C137.48 20.3333 137.255 21.742 137.255 23.3636ZM175.998 9.72727V15.4091H159.574V9.72727H175.998ZM163.302 3.19318H170.866V28.6193C170.866 29.3177 170.973 29.8622 171.186 30.2528C171.399 30.6316 171.695 30.898 172.074 31.0518C172.464 31.2057 172.914 31.2827 173.423 31.2827C173.778 31.2827 174.133 31.2531 174.488 31.1939C174.843 31.1229 175.116 31.0696 175.305 31.0341L176.495 36.6626C176.116 36.781 175.583 36.9171 174.897 37.071C174.21 37.2367 173.376 37.3374 172.393 37.3729C170.57 37.4439 168.972 37.2012 167.599 36.6449C166.238 36.0885 165.178 35.2244 164.421 34.0526C163.663 32.8807 163.29 31.401 163.302 29.6136V3.19318Z" fill="#8627CC"/>
<path d="M0.775568 67.9751V61.6364H30.6406V67.9751H19.5078V98H11.9084V67.9751H0.775568ZM42.9808 82.233V98H35.4169V61.6364H42.7678V75.5391H43.0874C43.7029 73.9292 44.6972 72.6686 46.0703 71.7571C47.4434 70.8338 49.1657 70.3722 51.2372 70.3722C53.1312 70.3722 54.7824 70.7865 56.1911 71.6151C57.6115 72.4318 58.7124 73.6096 59.4936 75.1484C60.2867 76.6754 60.6773 78.5043 60.6655 80.6349V98H53.1016V81.9844C53.1134 80.3035 52.6873 78.9955 51.8232 78.0604C50.9709 77.1252 49.7753 76.6577 48.2365 76.6577C47.2067 76.6577 46.2952 76.8767 45.5021 77.3146C44.7209 77.7526 44.1054 78.3918 43.6555 79.2322C43.2176 80.0608 42.9927 81.0611 42.9808 82.233ZM79.0471 98.5327C76.2417 98.5327 73.8269 97.9645 71.8027 96.8281C69.7904 95.6799 68.2398 94.0582 67.1507 91.9631C66.0617 89.8561 65.5172 87.3643 65.5172 84.4879C65.5172 81.6825 66.0617 79.2204 67.1507 77.1016C68.2398 74.9827 69.7727 73.3314 71.7495 72.1477C73.7381 70.964 76.07 70.3722 78.7452 70.3722C80.5444 70.3722 82.2194 70.6622 83.7701 71.2422C85.3326 71.8104 86.6938 72.6686 87.8539 73.8168C89.0257 74.965 89.9372 76.4091 90.5882 78.1491C91.2393 79.8774 91.5648 81.9015 91.5648 84.2216V86.299H68.5357V81.6115H84.4448C84.4448 80.5225 84.208 79.5578 83.7346 78.7173C83.2611 77.8769 82.6041 77.2199 81.7637 76.7464C80.9351 76.2611 79.9703 76.0185 78.8695 76.0185C77.7213 76.0185 76.7033 76.2848 75.8155 76.8175C74.9396 77.3383 74.253 78.0426 73.7559 78.9304C73.2587 79.8063 73.0042 80.7829 72.9924 81.8601V86.3168C72.9924 87.6662 73.2409 88.8321 73.7381 89.8146C74.2471 90.7971 74.9632 91.5547 75.8865 92.0874C76.8098 92.62 77.9048 92.8864 79.1713 92.8864C80.0118 92.8864 80.7812 92.768 81.4796 92.5312C82.178 92.2945 82.7757 91.9394 83.2729 91.4659C83.7701 90.9924 84.1489 90.4124 84.4093 89.7259L91.405 90.1875C91.0499 91.8684 90.3219 93.3362 89.2211 94.5909C88.132 95.8338 86.7234 96.8045 84.9952 97.5028C83.2788 98.1894 81.2961 98.5327 79.0471 98.5327ZM108.215 98V61.6364H132.292V67.9751H115.903V76.6399H130.694V82.9787H115.903V98H108.215ZM153.102 86.3878V70.7273H160.665V98H153.403V93.0462H153.119C152.504 94.6442 151.48 95.9285 150.048 96.8991C148.627 97.8698 146.893 98.3551 144.845 98.3551C143.022 98.3551 141.418 97.9408 140.033 97.1122C138.648 96.2836 137.565 95.1058 136.784 93.5788C136.015 92.0518 135.624 90.223 135.612 88.0923V70.7273H143.176V86.7429C143.188 88.3527 143.62 89.6252 144.472 90.5604C145.325 91.4955 146.467 91.9631 147.899 91.9631C148.811 91.9631 149.663 91.7559 150.456 91.3416C151.249 90.9155 151.888 90.2881 152.374 89.4595C152.871 88.6309 153.113 87.607 153.102 86.3878ZM181.222 70.7273V76.4091H164.798V70.7273H181.222ZM168.527 64.1932H176.091V89.6193C176.091 90.3177 176.197 90.8622 176.41 91.2528C176.623 91.6316 176.919 91.898 177.298 92.0518C177.689 92.2057 178.139 92.2827 178.648 92.2827C179.003 92.2827 179.358 92.2531 179.713 92.1939C180.068 92.1229 180.34 92.0696 180.53 92.0341L181.719 97.6626C181.34 97.781 180.808 97.9171 180.121 98.071C179.435 98.2367 178.6 98.3374 177.618 98.3729C175.795 98.4439 174.197 98.2012 172.824 97.6449C171.462 97.0885 170.403 96.2244 169.645 95.0526C168.888 93.8807 168.515 92.401 168.527 90.6136V64.1932ZM203.639 86.3878V70.7273H211.203V98H203.941V93.0462H203.656C203.041 94.6442 202.017 95.9285 200.585 96.8991C199.164 97.8698 197.43 98.3551 195.382 98.3551C193.559 98.3551 191.955 97.9408 190.57 97.1122C189.186 96.2836 188.102 95.1058 187.321 93.5788C186.552 92.0518 186.161 90.223 186.149 88.0923V70.7273H193.713V86.7429C193.725 88.3527 194.157 89.6252 195.009 90.5604C195.862 91.4955 197.004 91.9631 198.436 91.9631C199.348 91.9631 200.2 91.7559 200.993 91.3416C201.786 90.9155 202.425 90.2881 202.911 89.4595C203.408 88.6309 203.651 87.607 203.639 86.3878ZM217.253 98V70.7273H224.586V75.4858H224.87C225.367 73.7931 226.202 72.5147 227.374 71.6506C228.545 70.7746 229.895 70.3366 231.422 70.3366C231.801 70.3366 232.209 70.3603 232.647 70.4077C233.085 70.455 233.47 70.5201 233.801 70.603V77.3146C233.446 77.2081 232.955 77.1134 232.327 77.0305C231.7 76.9477 231.126 76.9062 230.605 76.9062C229.492 76.9062 228.498 77.1489 227.622 77.6342C226.758 78.1077 226.071 78.7706 225.562 79.6229C225.065 80.4751 224.817 81.4576 224.817 82.5703V98H217.253ZM248.871 98.5327C246.066 98.5327 243.651 97.9645 241.627 96.8281C239.615 95.6799 238.064 94.0582 236.975 91.9631C235.886 89.8561 235.341 87.3643 235.341 84.4879C235.341 81.6825 235.886 79.2204 236.975 77.1016C238.064 74.9827 239.597 73.3314 241.574 72.1477C243.562 70.964 245.894 70.3722 248.569 70.3722C250.369 70.3722 252.044 70.6622 253.594 71.2422C255.157 71.8104 256.518 72.6686 257.678 73.8168C258.85 74.965 259.761 76.4091 260.412 78.1491C261.064 79.8774 261.389 81.9015 261.389 84.2216V86.299H238.36V81.6115H254.269C254.269 80.5225 254.032 79.5578 253.559 78.7173C253.085 77.8769 252.428 77.2199 251.588 76.7464C250.759 76.2611 249.795 76.0185 248.694 76.0185C247.546 76.0185 246.528 76.2848 245.64 76.8175C244.764 77.3383 244.077 78.0426 243.58 78.9304C243.083 79.8063 242.828 80.7829 242.817 81.8601V86.3168C242.817 87.6662 243.065 88.8321 243.562 89.8146C244.071 90.7971 244.787 91.5547 245.711 92.0874C246.634 92.62 247.729 92.8864 248.996 92.8864C249.836 92.8864 250.605 92.768 251.304 92.5312C252.002 92.2945 252.6 91.9394 253.097 91.4659C253.594 90.9924 253.973 90.4124 254.233 89.7259L261.229 90.1875C260.874 91.8684 260.146 93.3362 259.045 94.5909C257.956 95.8338 256.548 96.8045 254.819 97.5028C253.103 98.1894 251.12 98.5327 248.871 98.5327Z" fill="white"/>
</svg>
